<?xml version="1.0" encoding="UTF-8"?>
<svg id="Layer_1" data-name="Layer 1" xmlns="http://www.w3.org/2000/svg" xmlns:xlink="http://www.w3.org/1999/xlink" viewBox="0 0 180.46 29.96">
  <defs>
    <style>
      .cls-1 {
        fill: url(#linear-gradient-2);
      }

      .cls-2 {
        fill: url(#linear-gradient);
      }
    </style>
    <linearGradient id="linear-gradient" x1="109.79" y1="5.95" x2="131.2" y2="27.36" gradientUnits="userSpaceOnUse">
      <stop offset="0" stop-color="#0070dc"/>
      <stop offset=".29" stop-color="#006dd8"/>
      <stop offset=".53" stop-color="#0064ce"/>
      <stop offset=".75" stop-color="#0054bd"/>
      <stop offset=".95" stop-color="#003fa6"/>
      <stop offset="1" stop-color="#00399f"/>
    </linearGradient>
    <linearGradient id="linear-gradient-2" x1="114.42" y1="2.62" x2="129.07" y2="17.27" gradientUnits="userSpaceOnUse">
      <stop offset="0" stop-color="#b2c5d5"/>
      <stop offset=".06" stop-color="#a6b8ca"/>
      <stop offset=".22" stop-color="#8c99b2"/>
      <stop offset=".38" stop-color="#78829f"/>
      <stop offset=".56" stop-color="#697191"/>
      <stop offset=".76" stop-color="#606789"/>
      <stop offset="1" stop-color="#5e6487"/>
    </linearGradient>
  </defs>
  <path d="M6.71,0v23.57h12.8v5.69H0V0h6.71Z"/>
  <path d="M41.66,28.33c-3.13.89-5.97,1.42-9.1,1.42-7.48,0-11.46-3.66-11.46-11.66s4.35-11.7,10.97-11.7c7.76,0,9.96,4.92,9.96,10.57v2.89h-14.1c.08,3.21,2.4,4.27,6.3,4.27,1.83,0,4.92-.57,7.44-1.3v5.53ZM35.44,15.2c-.04-1.71-.65-3.78-3.78-3.78-2.4,0-3.82,1.79-3.82,3.78h7.6Z"/>
  <path d="M57.87,15.4v-1.14c0-1.5-.98-2.6-4.43-2.6-1.87,0-5.12.41-7.23,1.02v-5.36c2.93-.61,6.38-.93,8.86-.93,5.77,0,9.31,2.76,9.31,8.33v14.55h-5.53l-.49-2.19h-.16c-2.4,1.71-4.67,2.52-6.87,2.52-3.9,0-6.99-2.44-6.99-7.28,0-4.1,3.01-6.91,8.7-6.91h4.84ZM57.87,19.63h-3.7c-2.28,0-3.29.77-3.29,2.19,0,1.63,1.14,2.4,2.68,2.4s3.13-.49,4.31-1.18v-3.41Z"/>
  <path d="M81.73,13.41c-2.68.45-4.92,1.22-7.64,2.15v13.7h-6.5V6.87h6.14v3.5c2.24-1.46,4.67-3.54,8.01-3.62v6.67Z"/>
  <path d="M98.35,29.26v-14.83c0-1.46-.49-2.19-2.07-2.19-1.46,0-3.45.81-5.12,1.67v15.36h-6.5V6.87h6.06v2.24h.16c2.64-1.63,5.2-2.72,7.4-2.72,3.94,0,6.58,1.87,6.58,6.79v16.09h-6.5Z"/>
  <path d="M150.47,29.26v-14.83c0-1.46-.49-2.19-2.07-2.19-1.46,0-3.45.81-5.12,1.67v15.36h-6.5V6.87h6.06v2.24h.16c2.64-1.63,5.2-2.72,7.4-2.72,3.94,0,6.58,1.87,6.58,6.79v16.09h-6.5Z"/>
  <path d="M173.96,29.26v-14.83c0-1.46-.49-2.19-2.07-2.19-1.46,0-3.45.81-5.12,1.67v15.36h-6.5V6.87h6.06v2.24h.16c2.64-1.63,5.2-2.72,7.4-2.72,3.94,0,6.58,1.87,6.58,6.79v16.09h-6.5Z"/>
  <path class="cls-2" d="M120.71,29.96c-7.22,0-13.09-5.87-13.09-13.09,0-3.62,1.52-7.1,4.16-9.57,1.12-1.04,2.86-.98,3.91.14,1.04,1.12.98,2.87-.14,3.91-1.55,1.45-2.41,3.41-2.41,5.53,0,4.17,3.39,7.56,7.56,7.56s7.56-3.39,7.56-7.56c0-2.12-.85-4.09-2.41-5.53-1.12-1.04-1.18-2.79-.14-3.91,1.04-1.12,2.79-1.18,3.91-.14,2.65,2.47,4.17,5.96,4.17,9.58,0,7.22-5.87,13.09-13.09,13.09Z"/>
  <path class="cls-1" d="M120.71,15.89c-1.53,0-2.76-1.24-2.76-2.76V4.69c0-1.53,1.24-2.76,2.76-2.76s2.76,1.24,2.76,2.76v8.43c0,1.53-1.24,2.76-2.76,2.76Z"/>
</svg>